<?xml version="1.0" encoding="UTF-8"?>
<!DOCTYPE svg PUBLIC "-//W3C//DTD SVG 1.1//EN" "http://www.w3.org/Graphics/SVG/1.1/DTD/svg11.dtd">
<!-- Creator: CorelDRAW 2020 (64-Bit) -->
<svg xmlns="http://www.w3.org/2000/svg" xml:space="preserve" width="169.333mm" height="50.8452mm" version="1.1" style="shape-rendering:geometricPrecision; text-rendering:geometricPrecision; image-rendering:optimizeQuality; fill-rule:evenodd; clip-rule:evenodd"
viewBox="0 0 2477.65 743.96"
 xmlns:xlink="http://www.w3.org/1999/xlink"
 xmlns:xodm="http://www.corel.com/coreldraw/odm/2003">
 <defs>
  <style type="text/css">
   <![CDATA[
    .fil0 {fill:none}
    .fil1 {fill:#1B1B1C}
   ]]>
  </style>
 </defs>
 <g id="Layer_x0020_1">
  <metadata id="CorelCorpID_0Corel-Layer"/>
  <path class="fil0" d="M1743.08 558.35c-151.42,-40.72 -323.5,-32.47 -484.98,-21.81 -134.64,8.89 -299.86,27.22 -435.2,17.05l-58.57 -6.21c7.79,3.46 46.64,7.16 58.35,8.28 67.35,6.43 122.64,6.39 190.76,5 206.33,-4.23 421.57,-31.31 627.09,0.7 18.63,2.9 37.1,6.42 55.13,10.36 9.3,2.03 17.9,4.08 26.81,6.35 8.44,2.15 17.57,5.22 26.27,6.96l-5.66 -26.68zm694.36 -187.6c-5.45,-2.5 -11.75,-6.95 -17.24,-10.17 -45.07,-26.5 -77.72,-39.54 -129.2,-56.55 -53.37,-17.64 -112.1,-32.22 -170.12,-42.24 -98.15,-16.96 -191.21,-25.19 -291.34,-27.77 -34.95,-0.9 -69.58,-0.14 -104.37,-0.6 119.01,1.18 279.65,16.94 394.81,42.54 59.3,13.18 115.97,28.8 169.94,49.02 44.48,16.67 73.07,28.69 113.07,51.15l33.22 19.96 1.21 -25.34zm-938.3 -158.75c-160.25,-5.13 -322.87,-4.76 -482.4,-14.52 -76.24,-4.66 -152.39,-10.37 -225.5,-23.33 -44.51,-7.89 -105.2,-20.11 -134.83,-51.81 -13.9,-14.87 -18.14,-35.01 -21.05,-40.1 -15.59,21.73 -17.6,35.44 0.04,56.96 5.57,6.79 19.09,15.84 27.07,20.22 109.53,60.1 452.27,54.63 584.05,53.97 42.31,-0.21 84.69,-0.55 126.89,-0.83l125.73 -0.55zm157.41 -7.03c-6.35,-7.31 -97.51,-55.6 -102.49,-58.06 -41.59,-20.5 -67.46,-31.97 -110.48,-49.58 -37.27,-15.26 -79.49,-28.68 -120.52,-39.57 -143.95,-38.2 -286.03,-44.71 -435.74,-29.66 -70.3,7.07 -140.64,17.86 -209.58,30.85l-66.18 12.74 67.22 -10.89c162.55,-27.45 345.75,-42.66 507.15,-16.06 94.31,15.54 159.15,35.63 246.32,68.9 40.14,15.32 69.96,30.23 107.14,50.44l49.23 29.58c13.76,9.26 10.75,8.15 30.53,9.27 12.37,0.7 25.1,1.83 37.4,2.05zm-1656.55 129.6l0 -10.35c1.37,-2.67 1.98,-6.67 3.22,-10.04 10.97,-29.95 43.55,-65.79 45.85,-101.86 1.24,-19.35 -6.97,-32.11 -9.62,-44.76 19.32,5.25 20.94,9.77 51.37,14.49 20.37,3.16 41.63,3.77 62.61,3.44 41.37,-0.67 82.72,-5.43 123.57,-8.79 75.66,-6.23 146.67,-9.99 222.46,-5.49 9.53,0.57 22.03,2.11 31.11,1.68 -11.41,-0.26 -28.98,-3.51 -41.79,-4.81 -43.88,-4.45 -94.15,-6.77 -137.96,-6.45 -48.78,0.36 -92.56,2.56 -140.17,3.7 -12.29,0.3 -35.96,1.94 -47.07,0.1 24.75,-5.38 47.88,-12.75 70.76,-19.81 30.95,-9.56 40.06,-12.24 72.1,-20.02 145.61,-35.37 302.14,-77.59 449.02,-103.3 109.35,-19.14 230.9,-24.76 345.12,-21.36 114.88,3.42 214.77,19.02 314.52,53.52 77.23,26.71 150.18,63.02 223.52,98.27 10.42,5.01 20.83,10.15 31.23,15.24 10.39,5.09 20.6,10.19 30.48,15.13 4.59,2.3 10.82,6.25 16.38,6.87l104.51 10.67c55.09,5.77 109.17,12.95 163.29,20.89 194.13,28.49 266.33,39.82 437.97,114.35 10.67,4.64 20.61,9.69 30.86,14.78 12,5.96 18.98,10.13 19.79,26.63 0.65,13.33 -1.87,28.93 -3.84,41.74 -4.39,28.5 -6.19,24.81 8.13,32.56 1.5,6.62 -5.52,35.74 -7.29,44.62 -5.43,27.15 -10.11,13.93 -18.99,20.85 -2.5,1.96 -3.32,4.98 -4.32,8.94l-16.49 63.12c-0.85,3.37 -4.03,17.92 -6.15,20.63l-188.21 14.35c0.78,-10.86 5.48,-18.76 8.27,-28.62 2.74,-9.68 5.02,-19.43 6.71,-29.74 30.98,-188.49 -168.77,-342.01 -348.37,-245.61 -23.71,12.73 -43.37,29.16 -61.05,48.47 -46.49,50.76 -69.54,120.62 -59.41,192.88 2.74,19.54 5.5,27.06 10.66,44.16 1.15,3.79 1.52,12.88 1.72,17.26 -8.31,1.01 -25.08,-0.24 -34.04,-0.53 -11.57,-0.37 -23.06,-0.64 -34.6,-0.93l-209 -5.39c-184.97,-4.87 -370.94,-10.63 -555.67,-14.79 -92.59,-2.08 -185.75,-6.05 -278.29,-7.22 0.77,-15.09 7.05,-29.17 7.69,-59.13 0.45,-21.07 -1.77,-41.14 -6.39,-60.54 -22.83,-95.89 -112.76,-178.67 -225.6,-177.85 -62.43,0.45 -123.27,27.48 -164.61,69.61 -50.38,51.34 -75.76,125.1 -64.11,199.3 1.59,10.13 4.29,18.84 6.04,28.53 -34.09,-2.44 -92.31,-17.31 -118.71,-36.18 -32.89,-23.51 -79.84,-90.34 -93.83,-122.61 -25.43,-58.67 -19.58,-88.33 -23.42,-100.62z"/>
  <path class="fil0" d="M2023.47 386.99c-78.54,-4.12 -141.89,56.59 -146.39,130.48 -4.86,79.99 56.78,143.32 130.76,147.76 34.51,2.07 67.17,-8.61 93.25,-28.8 3.71,-2.87 6.15,-5.11 9.48,-7.93 10.29,-8.72 22,-24.41 29.9,-39.79 8.11,-15.79 13.35,-34.48 14.64,-55.15 4.95,-78.95 -57.63,-142.67 -131.65,-146.56zm8.61 -74.4c34.62,3.07 57.14,10.31 84.53,23.98 20.58,10.27 38.59,24.05 53.71,40.02 2.24,2.36 5.06,4.52 7.11,6.97 37.6,45.17 59.27,95.6 54.68,159.95 -8.12,113.77 -106.78,209.03 -230.94,199.83 -32.44,-2.4 -58.77,-10.83 -84.16,-23.86 -23.2,-11.91 -47.79,-31.36 -60.57,-47.26 -18.77,-23.35 -29.07,-35.17 -41.08,-66.71 -10.69,-28.07 -16.23,-59.67 -13.69,-93.32 2.47,-32.75 11.1,-58.82 23.93,-84.09 10.37,-20.41 26.57,-41.64 43.34,-57.01 21.82,-20.01 41.17,-33.27 70.53,-44.74 26.47,-10.35 60.9,-16.57 92.63,-13.75z"/>
  <path class="fil0" d="M466.95 389.39c-42.24,-3.2 -81.59,16.15 -102.8,36.9 -25.81,25.26 -42.89,54.74 -45.25,94.78 -4.72,80.18 56.77,143.39 131.26,148.4 79.88,5.37 144.45,-57.5 148.68,-131.22 3.4,-59.2 -28.08,-109.05 -76.75,-134.01 -17,-8.72 -33.59,-13.21 -55.15,-14.85zm8.59 -71.49c43.81,3.91 81.75,18.9 114.18,44.45 5.2,4.1 9.37,8.14 14.19,12.33 22.48,19.57 42.45,51.3 53.34,79.37 10.59,27.29 15.34,59.35 13.03,91.61 -7.96,111.28 -105.47,204.27 -227.9,195.18 -110.85,-8.23 -204.57,-105.84 -194.8,-228.22 3.28,-41.04 19.46,-83.89 44.21,-113.87 25.97,-31.45 52.92,-52.7 91.52,-67.73 26.31,-10.25 60.62,-15.95 92.22,-13.12z"/>
  <path class="fil0" d="M506.46 646.82c-0.48,-20.34 -22.03,-75.12 -47.83,-74.89 -27.89,0.24 -48.14,59.77 -47.01,74.67 1.27,-2.4 2.04,-4.6 3.89,-6.24 15.12,4.64 25.75,8.23 43.96,8.18 24.41,-0.07 28.28,-5.06 43.28,-8.21l3.71 6.49zm-125.46 -17.63c4.56,-2.43 12.63,-9.79 15.87,-13.38 4.36,-4.83 8.66,-10.63 12.94,-16.94 49.89,-73.67 -36.67,-69.44 -76.26,-51.85l7.32 0.11c2.05,4.37 4.2,17.65 6.45,23.63 2.78,7.43 5.89,13.87 9.69,20.15 11.25,18.61 16.5,20.16 27.85,31.98l-3.85 6.29zm203.91 -82.47c-0.03,0.01 -18.19,-6.12 -21.7,-6.91 -8.55,-1.93 -18.22,-2.69 -27.46,-2.91 -80.22,-1.96 -29,72 0.78,92.35 -1.09,-3.01 -2.27,-3.61 -3.34,-6.43 5.39,-5.72 9.77,-8.81 15.04,-14.9 4.72,-5.45 8.61,-10.4 12.67,-17.18 13.54,-22.58 12.54,-33.39 15.72,-42.51l8.28 -1.51zm-119.91 -49.29c-19.15,-3.95 -35.1,9.75 -38.22,25.5 -4.01,20.2 10.1,35.41 25.95,38.68 41.34,8.53 55.67,-55.22 12.27,-64.18zm-131.52 14.54c21.2,11.01 81.8,18.87 90.47,-7.58 8.49,-25.89 -31.13,-68.5 -42.27,-74.2 1.1,2.55 2.17,3.58 3.22,6.38 -10.51,7.84 -20.31,18.35 -27.93,31.47 -14.74,25.35 -13.15,37.29 -16.11,43.83l-7.38 0.1zm199.55 -75.88l3.5 -6.33c-3.7,1.59 -13.2,10.94 -15.76,13.86 -11.23,12.8 -32.55,41.16 -26.93,60.22 9.1,30.83 78.63,15.91 90.24,7.98l-7.69 0.08c-1.61,-15.42 -8.8,-32.93 -15.7,-44.22 -9.25,-15.12 -15.57,-20.38 -27.66,-31.58zm-30.44 -17.82c-5.7,-0.78 -13.46,-4.17 -20.4,-5.57 -15.01,-3.04 -32.06,-3.12 -47.04,0.04 -6.95,1.46 -14.63,4.82 -20.34,5.58l-3.3 -6.03c-0.58,17.53 21.72,75.09 47.96,74.6 28.48,-0.54 48.08,-62 46.94,-75.09l-3.82 6.48zm90.02 124.09c-7.28,73.26 -72.67,128.02 -146.29,120.86 -69.65,-6.77 -128.42,-68.32 -121.07,-146.56 6.54,-69.6 68.26,-128.18 146.67,-121.03 68.9,6.28 128.4,69.15 120.69,146.73z"/>
  <path class="fil0" d="M2063.11 642.56c0.71,-24.22 -39.38,-121.53 -79.43,-46.41 -5.43,10.19 -14.9,33.08 -14.62,46.33l3.29 -6.24c13.03,2.3 17.82,7.95 42.97,8.15 7.82,0.06 16.01,-0.68 23.52,-2.23 7.96,-1.65 13.46,-3.99 20.44,-5.89l3.83 6.3zm-163.9 -98.53c7.37,30.39 10.21,37.37 27.98,59.94 4.27,5.42 10.47,10.17 15.15,14.7l-3.01 5.69c4.82,-1.62 12.36,-10.23 15.85,-13.61 10.21,-9.86 31.38,-41.12 26.23,-59.38 -6.37,-22.56 -45.91,-19.71 -66.25,-15.41 -3.37,0.71 -17.33,4.16 -20.48,6.18 -1.39,0.89 -0.82,0.48 -1.74,1.41 2.9,-0.05 4.13,-0.52 6.27,0.47zm194.08 81.15c-1.32,-2.79 -2.36,-3.51 -3.3,-6.51 5.71,-5.25 10.17,-8.63 14.71,-14.3 18.57,-23.19 20.87,-29.93 28.27,-60.34 2.29,-1.01 3.32,-0.54 6.38,-0.47 -1.21,-1.25 0.07,-0.42 -2.31,-1.75l-7.97 -2.86c-20.99,-6.41 -71.98,-12.42 -78.52,12.92 -4.93,19.12 15.29,48.61 27.01,59.31 4.42,4.04 10.16,11.22 15.74,14.01zm-45 -94.42c5.81,-43.85 -59.02,-50.56 -64.41,-9.08 -5.65,43.43 58.93,50.46 64.41,9.08zm41.17 -96.78l3.24 -6.26c-20.68,10.65 -84.77,94.41 0.59,91.51 13.69,-0.47 37.63,-4.8 47.28,-10.66l-7.75 0.14c-1.93,-16.33 -8,-31 -15.42,-43.53 -6.12,-10.33 -19.24,-26.44 -27.94,-31.2zm-198.13 74.8c7.75,2.56 12.95,5.18 21.9,7.13 18.99,4.15 61.01,7.14 68.18,-14.93 4.89,-15.03 -7.14,-34.9 -13.48,-43.91 -5.04,-7.16 -21.57,-26.55 -28.86,-29.9l3.37 6.83c-8.67,5.4 -21.3,20.39 -27.62,31.07 -6.92,11.68 -13.7,28.08 -15.48,43.66l-8 0.06zm167.96 -92.95c-6.68,-1.53 -12.54,-4.18 -20.33,-5.72 -7.7,-1.53 -15.48,-2.33 -23.62,-2.28 -24.97,0.16 -29.95,5.83 -43.02,7.98l-3.28 -6c-0.45,22.13 37.89,122.11 79.84,45.86 5.42,-9.85 14.13,-33.15 14.42,-46.14l-4 6.3zm-27.01 -22.05c25.69,3.31 51.83,14.12 69.7,30.41 3.07,2.8 4.9,4.11 8.78,7.79 27.71,26.28 42.62,70.58 37.75,110.1 -8.42,68.34 -70.07,125.74 -148.94,116.42 -67.3,-7.95 -124.85,-70.3 -115.88,-148.22 7.81,-67.85 70.5,-126.56 148.59,-116.5z"/>
  <path class="fil0" d="M494.11 435.38c-5.3,11.17 -16.41,45.98 -35.4,45.42 -16.29,-0.48 -32.28,-34.62 -34.97,-45.42 12.03,-9.02 59.44,-8.72 70.37,0z"/>
  <path class="fil0" d="M558.01 513.2c-18.55,1.68 -52.95,7.62 -58.27,-11.13 -4.95,-17.46 18.09,-42.2 22.37,-50.43 15.06,6.98 36.46,44.39 35.9,61.56z"/>
  <path class="fil0" d="M494.08 623.64c-13.42,8.77 -56.48,8.41 -70.21,0 0.9,-6.01 9.41,-22.2 12.5,-27.22 4.11,-6.68 11.79,-18.34 22.25,-18.36 16.98,-0.02 33.9,37.21 35.46,45.57z"/>
  <path class="fil0" d="M558.24 545.73c-2.11,18.47 -11.5,36.36 -22.87,49.31 -3.64,4.14 -7.53,9.69 -13.08,12.16 -4.42,-8.18 -27.78,-32.27 -22.64,-50.38 5.12,-18.04 40.22,-12.93 58.59,-11.09z"/>
  <path class="fil0" d="M394.77 607.02c-13.29,-9.56 -33.14,-35.92 -35.05,-61.29 18.64,-1.91 53.56,-7.67 58.47,11.37 3.78,14.63 -16.93,44.25 -23.42,49.92z"/>
  <path class="fil0" d="M394.77 451.89c6.56,5.17 27.16,34.42 23.59,49.44 -4.71,19.85 -45.12,12.96 -58.53,11.88 -0.06,-10.72 8.03,-28.06 12.51,-35.58 4.85,-8.13 14.87,-20.6 22.44,-25.74z"/>
  <path class="fil0" d="M2114.76 542.37c-2.36,20.4 -11.9,34.98 -22.81,49.27 -1.91,2.5 -8.98,10.14 -13.14,11.54 -4.57,-8.76 -27.85,-32.65 -22.12,-50.19 5.86,-17.94 39.33,-12.61 58.07,-10.62z"/>
  <path class="fil0" d="M2050.92 620.21c-12.41,3.3 -20.21,6.09 -34.77,6.11 -9.67,0.01 -28.49,-2.11 -34.94,-6.82 2.04,-9.34 17.88,-45.47 34.93,-45.04 10.01,0.25 18.06,11.5 22.08,17.98 2.92,4.71 12.21,22.25 12.7,27.77z"/>
  <path class="fil0" d="M2114.68 509.87c-18.44,1.85 -53.17,7.74 -58.07,-11.23 -3.87,-14.97 17.69,-45.57 23.32,-49.72 16.07,11.2 33.14,40.48 34.76,60.95z"/>
  <path class="fil0" d="M1917.54 509.9c1.43,-20.74 20.59,-52.41 34.93,-60.87 6.72,6.82 26.94,33.41 23.4,48.95 -4.31,18.93 -40.17,13.81 -58.33,11.91z"/>
  <path class="fil0" d="M1952.29 603.09c-16.15,-10.29 -32.34,-40.04 -34.88,-60.81 18.78,-1.67 52.69,-7.75 58.1,10.87 4.37,15.01 -18.59,47 -23.22,49.95z"/>
  <path class="fil0" d="M2051.17 432.03c-0.95,5.87 -9.78,23.14 -12.89,27.97 -15.57,24.14 -29.27,23.56 -44.47,-0.63 -3.36,-5.34 -11.3,-20.62 -12.71,-27.29 12.84,-2.79 19.41,-6.26 35.06,-6.23 15.25,0.03 22.46,3.13 35.01,6.18z"/>
  <path class="fil1" d="M477.93 522.46c-2.7,-5.73 -6.33,-10.3 -12.67,-12.11 -0.24,0.57 -0.54,7.05 -6.58,6.88 -5.61,-0.16 -4.47,-4.83 -6.9,-7.02 -10.85,7.59 -4.03,0.15 -12.05,11.94 1.88,2.32 6.7,2.05 6.94,7 0.28,5.63 -3.82,5.42 -6.9,6.58 1.45,5.81 7.27,12.2 13.38,12.79 -0.38,-3.76 1.41,-6.79 5.52,-6.88 6.03,-0.14 5.13,4.14 6.59,6.93 7.07,-2.55 10.06,-6.08 12.77,-12.83 -3.09,-1.27 -6.68,-1.31 -6.93,-5.83 -0.11,-1.97 0.71,-3.87 1.76,-4.82 1.59,-1.45 3.08,-1.15 5.07,-2.61zm-15.52 -19.77c13.83,1.8 25.4,14.38 23.13,30.57 -4.75,33.82 -57.45,28.64 -53.23,-7.29 1.63,-13.87 14.41,-25.33 30.1,-23.28z"/>
  <path class="fil1" d="M2022.87 506.99c-1.21,1.42 -1.08,3.42 -2.27,5 -0.96,1.28 -6.8,5.78 -10.45,-3.42l-0.83 -1.65c-6.04,3.83 -9.16,3.68 -12.35,13.55 4.58,-0.1 3.69,0.14 6.57,2.63 1.63,7.78 -1.48,7.49 -6.47,9.31 2.7,7.22 5.55,10.03 12.66,12.81 1.58,-3.02 1.07,-7.05 6.43,-6.98 4.82,0.07 4.6,3.92 6.36,6.99 7.35,-3.06 9.61,-5.84 12.66,-12.81 -1.77,-0.71 -3.97,-1.06 -6.11,-2.16 -1.26,-5.37 -1.39,-10.53 5.84,-9.92 -0.18,-2.76 -3.02,-7.15 -4.12,-8.38 -1.73,-1.93 -4.81,-3.52 -7.92,-4.96zm-3.39 -7.36c35.79,5.13 27.65,57.86 -7.48,52.86 -6.68,-0.95 -13.31,-4.87 -16.92,-9.79 -14.78,-20.14 1.69,-46.32 24.41,-43.06z"/>
 </g>
</svg>
