<?xml version="1.0" encoding="UTF-8"?>
<!DOCTYPE svg PUBLIC "-//W3C//DTD SVG 1.1//EN" "http://www.w3.org/Graphics/SVG/1.1/DTD/svg11.dtd">
<!-- Creator: CorelDRAW 2020 (64-Bit) -->
<?xml-stylesheet href="car.css" type="text/css"?>
<svg xmlns="http://www.w3.org/2000/svg" xml:space="preserve" width="169.602mm" height="50.9441mm" version="1.1" style="shape-rendering:geometricPrecision; text-rendering:geometricPrecision; image-rendering:optimizeQuality; fill-rule:evenodd; clip-rule:evenodd"
viewBox="0 0 16409.73 4929.06"
 xmlns:xlink="http://www.w3.org/1999/xlink"
 xmlns:xodm="http://www.corel.com/coreldraw/odm/2003">
 <g id="Layer_x0020_1">
  <metadata id="CorelCorpID_0Corel-Layer"/>
  <g id="_1616587615584">
   <path class="fil0 str0" d="M11542.8 3701.74c-1001.27,-269.27 -2139.17,-214.71 -3206.97,-144.22 -890.31,58.79 -1982.84,179.99 -2877.78,112.75l-387.3 -41.06c51.51,22.88 308.41,47.34 385.85,54.75 445.36,42.52 810.97,42.25 1261.42,33.06 1364.36,-27.97 2787.66,-207.04 4146.67,4.62 123.19,19.18 245.33,42.46 364.55,68.5 61.5,13.42 118.37,26.98 177.28,41.99 55.81,14.21 116.18,34.52 173.71,46.03l-37.42 -176.42zm4591.5 -1240.52c-36.04,-16.54 -77.69,-45.96 -114.01,-67.25 -298.03,-175.23 -513.93,-261.46 -854.34,-373.95 -352.91,-116.65 -741.27,-213.05 -1124.93,-279.32 -649.03,-112.15 -1264.4,-166.57 -1926.5,-183.63 -231.11,-5.95 -460.11,-0.93 -690.16,-3.97 786.96,7.8 1849.2,112.01 2610.7,281.3 392.13,87.16 766.87,190.44 1123.74,324.15 294.12,110.23 483.18,189.72 747.69,338.22l219.67 131.98 8 -167.55 0.13 0.01zm-6204.57 -1049.75c-1059.66,-33.92 -2135,-31.47 -3189.89,-96.02 -504.14,-30.82 -1007.69,-68.57 -1491.14,-154.27 -294.33,-52.17 -695.64,-132.98 -891.57,-342.6 -91.92,-98.33 -119.96,-231.5 -139.19,-265.17 -103.09,143.69 -116.39,234.35 0.26,376.66 36.83,44.9 126.24,104.75 179.01,133.7 724.27,397.42 2990.67,361.24 3862.07,356.88 279.77,-1.39 560.02,-3.64 839.07,-5.49l831.4 -3.64 -0.01 -0.06zm1040.88 -46.48c-41.99,-48.34 -644.79,-367.66 -677.73,-383.93 -275.01,-135.56 -446.09,-211.41 -730.55,-327.85 -246.45,-100.91 -525.64,-189.65 -796.95,-261.66 -951.88,-252.6 -1891.38,-295.65 -2881.35,-196.13 -464.87,46.75 -929.99,118.1 -1385.86,204l-437.62 84.24 444.5 -72.01c1074.87,-181.51 2286.3,-282.1 3353.56,-106.2 623.63,102.76 1052.39,235.61 1628.81,455.61 265.43,101.3 462.61,199.89 708.47,333.54l325.54 195.6c90.99,61.24 71.09,53.89 201.88,61.29 81.8,4.62 165.97,12.1 247.31,13.56l-0.02 -0.05zm-10954.05 856.99l0 -68.44c9.06,-17.66 13.09,-44.11 21.3,-66.39 72.54,-198.05 287.98,-435.05 303.19,-673.56 8.2,-127.96 -46.09,-212.33 -63.62,-295.98 127.75,34.72 138.47,64.6 339.69,95.82 134.7,20.9 275.29,24.93 414.01,22.75 273.56,-4.43 546.99,-35.91 817.12,-58.12 500.31,-41.2 969.86,-66.06 1471.02,-36.3 63.02,3.77 145.67,13.95 205.72,11.11 -75.45,-1.72 -191.63,-23.21 -276.34,-31.8 -290.16,-29.42 -622.58,-44.77 -912.26,-42.65 -322.56,2.38 -612.06,16.93 -926.89,24.47 -81.26,1.98 -237.79,12.83 -311.26,0.66 163.66,-35.58 316.61,-84.31 467.9,-131 204.65,-63.22 264.9,-80.94 476.77,-132.38 962.85,-233.88 1997.92,-513.07 2969.17,-683.08 723.08,-126.56 1526.84,-163.73 2282.14,-141.24 759.65,22.61 1420.17,125.77 2079.78,353.91 510.69,176.63 993.08,416.72 1478.04,649.82 68.9,33.13 137.74,67.12 206.51,100.78 68.71,33.66 136.22,67.38 201.55,100.04 30.35,15.21 71.55,41.32 108.32,45.43l691.08 70.55c364.28,38.15 721.88,85.64 1079.76,138.14 1283.7,188.39 1761.13,263.32 2896.11,756.15 70.55,30.68 136.29,64.08 204.06,97.73 79.35,39.41 125.51,66.98 130.86,176.08 4.3,88.14 -12.37,191.3 -25.39,276.01 -29.03,188.46 -40.93,164.06 53.76,215.31 9.92,43.77 -36.51,236.33 -48.2,295.05 -35.91,179.53 -66.86,92.11 -125.58,137.87 -16.54,12.97 -21.95,32.94 -28.56,59.12l-109.04 417.39c-5.62,22.28 -26.65,118.5 -40.67,136.41l-1244.55 94.89c5.16,-71.81 36.23,-124.05 54.69,-189.25 18.12,-64.01 33.2,-128.48 44.37,-196.66 204.86,-1246.41 -1116,-2261.56 -2303.62,-1624.11 -156.78,84.18 -286.78,192.82 -403.69,320.51 -307.42,335.64 -459.83,797.6 -392.85,1275.43 18.12,129.21 36.37,178.94 70.49,292.01 7.6,25.06 10.05,85.17 11.38,114.13 -54.95,6.68 -165.85,-1.59 -225.09,-3.5 -76.5,-2.45 -152.48,-4.23 -228.8,-6.15l-1382.03 -35.64c-1223.13,-32.2 -2452.87,-70.29 -3674.4,-97.8 -612.26,-13.76 -1228.29,-40.01 -1840.22,-47.74 5.09,-99.78 46.62,-192.89 50.85,-391 2.98,-139.33 -11.71,-272.04 -42.25,-400.32 -150.97,-634.08 -745.64,-1181.46 -1491.8,-1176.04 -412.82,2.98 -815.13,181.71 -1088.49,460.3 -333.14,339.48 -500.97,827.22 -423.93,1317.88 10.52,66.98 28.37,124.58 39.94,188.66 -225.42,-16.14 -610.4,-114.46 -784.98,-239.24 -217.48,-155.46 -527.95,-597.38 -620.46,-810.77 -168.16,-387.96 -129.48,-584.08 -154.87,-665.35l0.25 0.14z"/>
   <path class="fil1" d="M13396.89 2568.6c-519.35,-27.25 -938.26,374.21 -968.02,862.81 -32.14,528.94 375.47,947.72 864.66,977.07 228.2,13.69 444.17,-56.93 616.63,-190.44 24.54,-18.97 40.67,-33.79 62.69,-52.44 68.05,-57.67 145.48,-161.42 197.72,-263.11 53.63,-104.42 88.28,-228 96.81,-364.69 32.73,-522.07 -381.09,-943.41 -870.55,-969.14l0.06 -0.06zm56.93 -491.97c228.93,20.3 377.85,68.17 558.96,158.57 136.09,67.91 255.18,159.04 355.17,264.62 14.81,15.61 33.46,29.89 47.01,46.09 248.63,298.69 391.92,632.16 361.57,1057.68 -53.7,752.31 -706.09,1382.22 -1527.11,1321.39 -214.51,-15.87 -388.62,-71.62 -556.51,-157.78 -153.41,-78.76 -316.02,-207.37 -400.51,-312.51 -124.12,-154.4 -192.23,-232.57 -271.65,-441.12 -70.69,-185.61 -107.32,-394.57 -90.52,-617.09 16.33,-216.57 73.4,-388.95 158.24,-556.05 68.57,-134.96 175.7,-275.34 286.58,-376.97 144.29,-132.32 272.24,-220 466.39,-295.85 175.04,-68.44 402.7,-109.57 612.52,-90.92l-0.13 -0.08z"/>
   <path class="fil1" d="M3104.3 2584.47c-279.32,-21.16 -539.52,106.8 -679.77,244 -170.67,167.04 -283.62,361.98 -299.22,626.74 -31.21,530.19 375.39,948.17 867.95,981.3 528.21,35.51 955.19,-380.23 983.16,-867.7 22.49,-391.47 -185.68,-721.1 -507.52,-886.15 -112.41,-57.67 -222.12,-87.35 -364.69,-98.2l0.08 0.01zm56.8 -472.72c289.7,25.85 540.58,124.98 755.02,293.93 34.39,27.11 61.96,53.82 93.83,81.53 148.65,129.41 280.7,339.22 352.72,524.84 70.03,180.46 101.44,392.46 86.16,605.78 -52.63,735.85 -697.42,1350.75 -1507.01,1290.65 -732.99,-54.42 -1352.72,-699.87 -1288.12,-1509.13 21.69,-271.38 128.68,-554.73 292.34,-752.97 171.73,-207.95 349.94,-348.47 605.17,-447.86 173.97,-67.78 400.85,-105.47 609.81,-86.76l0.07 -0.01z"/>
   <path class="fil1" d="M3365.56 4286.75c-3.17,-134.5 -145.67,-496.74 -316.28,-495.22 -184.42,1.59 -318.33,395.23 -310.86,493.76 8.4,-15.87 13.49,-30.42 25.73,-41.27 99.99,30.68 170.28,54.42 290.69,54.1 161.42,-0.46 187.01,-33.46 286.19,-54.29l24.54 42.92zm-829.62 -116.58c30.15,-16.07 83.52,-64.74 104.94,-88.47 28.83,-31.94 57.27,-70.29 85.57,-112.01 329.9,-487.15 -242.49,-459.18 -504.26,-342.86l48.41 0.73c13.56,28.9 27.77,116.71 42.65,156.26 18.38,49.13 38.94,91.71 64.08,133.24 74.39,123.06 109.1,133.31 184.15,211.47l-25.46 41.59 -0.08 0.06zm1348.37 -545.35c-0.2,0.07 -120.29,-40.47 -143.5,-45.7 -56.53,-12.76 -120.48,-17.78 -181.58,-19.24 -530.47,-12.97 -191.77,476.11 5.16,610.67 -7.21,-19.9 -15.01,-23.87 -22.09,-42.52 35.64,-37.82 64.6,-58.26 99.45,-98.52 31.21,-36.04 56.93,-68.77 83.78,-113.6 89.54,-149.31 82.92,-220.79 103.95,-281.1l54.75 -9.99 0.07 0zm-792.91 -325.93c-126.63,-26.12 -232.1,64.48 -252.73,168.62 -26.52,133.57 66.79,234.16 171.59,255.77 273.36,56.41 368.12,-365.15 81.14,-424.39zm-869.68 96.14c140.19,72.81 540.9,124.78 598.23,-50.12 56.14,-171.2 -205.84,-452.97 -279.51,-490.65 7.28,16.86 14.35,23.68 21.3,42.18 -69.5,51.84 -134.3,121.34 -184.68,208.1 -97.47,167.63 -86.95,246.58 -106.53,289.83l-48.8 0.66 -0.01 0zm1319.54 -501.77l23.14 -41.86c-24.47,10.52 -87.28,72.34 -104.21,91.65 -74.26,84.64 -215.24,272.17 -178.08,398.21 60.17,203.86 519.95,105.21 596.72,52.77l-50.85 0.53c-10.64,-101.97 -58.19,-217.76 -103.82,-292.41 -61.17,-99.99 -102.96,-134.77 -182.9,-208.82l0 -0.07zm-201.29 -117.84c-37.7,-5.16 -89,-27.57 -134.89,-36.83 -99.25,-20.11 -212,-20.63 -311.06,0.26 -45.96,9.66 -96.74,31.87 -134.5,36.9l-21.82 -39.87c-3.83,115.92 143.62,496.54 317.14,493.3 188.32,-3.57 317.93,-409.98 310.4,-496.54l-25.26 42.85 -0.01 -0.07zm595.26 820.55c-48.14,484.44 -480.54,846.54 -967.35,799.2 -460.57,-44.77 -849.17,-451.78 -800.57,-969.14 43.25,-460.23 451.37,-847.6 969.86,-800.32 455.61,41.53 849.06,457.26 798.07,970.26z"/>
   <path class="fil1" d="M13659.01 4258.58c4.69,-160.16 -260.4,-803.62 -525.24,-306.89 -35.91,67.38 -98.52,218.74 -96.68,306.36l21.76 -41.27c86.16,15.21 117.84,52.57 284.14,53.89 51.72,0.4 105.87,-4.5 155.53,-14.75 52.63,-10.91 89,-26.38 135.17,-38.94l25.33 41.66 -0.01 -0.08zm-1083.79 -651.53c48.74,200.96 67.52,247.11 185.02,396.35 28.23,35.84 69.24,67.25 100.18,97.21l-19.9 37.63c31.87,-10.71 81.73,-67.65 104.81,-90 67.52,-65.2 207.5,-271.91 173.45,-392.66 -42.13,-149.18 -303.59,-130.34 -438.08,-101.9 -22.28,4.69 -114.6,27.51 -135.43,40.87 -9.19,5.88 -5.42,3.17 -11.5,9.33 19.18,-0.33 27.31,-3.43 41.46,3.11l-0.01 0.07zm1283.37 536.61c-8.73,-18.45 -15.61,-23.21 -21.82,-43.05 37.75,-34.72 67.25,-57.07 97.27,-94.56 122.79,-153.35 138,-197.91 186.94,-399.01 15.14,-6.68 21.95,-3.57 42.18,-3.11 -8,-8.26 0.46,-2.78 -15.28,-11.57l-52.7 -18.92c-138.79,-42.39 -475.97,-82.13 -519.22,85.43 -32.6,126.43 101.11,321.44 178.61,392.19 29.23,26.71 67.19,74.19 104.08,92.64l-0.06 -0.07zm-297.57 -624.36c38.42,-289.96 -390.28,-334.33 -425.91,-60.05 -37.36,287.19 389.68,333.67 425.91,60.05zm272.24 -639.97l21.42 -41.39c-136.75,70.43 -560.55,624.3 3.9,605.12 90.52,-3.11 248.83,-31.75 312.64,-70.49l-51.25 0.93c-12.76,-107.99 -52.91,-204.99 -101.97,-287.84 -40.47,-68.31 -127.22,-174.84 -184.75,-206.31l0.01 -0.02zm-1310.15 494.63c51.25,16.93 85.64,34.25 144.81,47.15 125.58,27.44 403.44,47.22 450.85,-98.73 32.34,-99.39 -47.22,-230.78 -89.14,-290.36 -33.33,-47.34 -142.64,-175.56 -190.84,-197.72l22.28 45.16c-57.33,35.71 -140.85,134.83 -182.64,205.45 -45.76,77.24 -90.59,185.68 -102.37,288.71l-52.91 0.4 -0.05 -0.06zm1110.65 -614.64c-44.17,-10.12 -82.92,-27.64 -134.43,-37.82 -50.91,-10.12 -102.37,-15.4 -156.19,-15.07 -165.11,1.05 -198.05,38.55 -284.48,52.77l-21.69 -39.68c-2.98,146.34 250.56,807.46 527.95,303.26 35.84,-65.14 93.44,-219.21 95.35,-305.11l-26.45 41.66 -0.06 -0.01zm-178.61 -145.81c169.88,21.89 342.73,93.37 460.9,201.08 20.3,18.52 32.4,27.18 58.06,51.51 183.23,173.78 281.83,466.71 249.63,728.05 -55.68,451.9 -463.35,831.47 -984.88,769.84 -445.03,-52.57 -825.58,-464.87 -766.27,-980.11 51.65,-448.66 466.19,-836.89 982.56,-770.37z"/>
   <path class="fil1" d="M3283.89 2888.58c-35.04,73.86 -108.51,304.05 -234.09,300.34 -107.72,-3.17 -213.45,-228.93 -231.24,-300.34 79.55,-59.65 393.05,-57.67 465.33,0z"/>
   <path class="fil1" d="M3706.44 3403.17c-122.67,11.11 -350.13,50.39 -385.31,-73.6 -32.73,-115.46 119.62,-279.05 147.93,-333.47 99.59,46.15 241.09,293.53 237.39,407.07z"/>
   <path class="fil1" d="M3283.7 4133.46c-88.74,57.99 -373.48,55.61 -464.27,0 5.95,-39.74 62.22,-146.8 82.66,-179.99 27.18,-44.17 77.96,-121.27 147.13,-121.41 112.28,-0.14 224.17,246.06 234.48,301.33l-0.01 0.07z"/>
   <path class="fil1" d="M3707.96 3618.28c-13.95,122.13 -76.05,240.43 -151.23,326.06 -24.07,27.37 -49.79,64.08 -86.49,80.41 -29.23,-54.1 -183.7,-213.39 -149.71,-333.14 33.85,-119.29 265.96,-85.5 387.43,-73.33l-0.01 0z"/>
   <path class="fil1" d="M2627 4023.57c-87.88,-63.22 -219.13,-237.52 -231.77,-405.28 123.25,-12.63 354.16,-50.72 386.63,75.19 24.99,96.74 -111.95,292.6 -154.87,330.1z"/>
   <path class="fil1" d="M2627 2997.76c43.37,34.18 179.6,227.6 155.99,326.92 -31.15,131.26 -298.36,85.7 -387.03,78.55 -0.4,-70.88 53.1,-185.55 82.72,-235.28 32.07,-53.76 98.33,-136.22 148.38,-170.21l-0.06 0.01z"/>
   <path class="fil1" d="M14000.55 3596.06c-15.61,134.89 -78.69,231.31 -150.83,325.8 -12.63,16.54 -59.38,67.05 -86.89,76.31 -30.22,-57.93 -184.16,-215.9 -146.27,-331.89 38.75,-118.63 260.08,-83.38 383.99,-70.22z"/>
   <path class="fil1" d="M13578.4 4110.78c-82.06,21.82 -133.64,40.27 -229.92,40.4 -63.94,0.07 -188.39,-13.95 -231.04,-45.1 13.49,-61.76 118.23,-300.67 230.98,-297.83 66.19,1.65 119.42,76.05 146,118.89 19.31,31.15 80.74,147.13 83.98,183.63l-0.01 0z"/>
   <path class="fil1" d="M14000.02 3381.16c-121.94,12.23 -351.6,51.18 -383.99,-74.26 -25.59,-98.99 116.98,-301.33 154.21,-328.78 106.27,74.07 219.14,267.68 229.85,403.04l-0.07 0z"/>
   <path class="fil1" d="M12696.42 3381.35c9.45,-137.15 136.15,-346.56 230.98,-402.51 44.44,45.1 178.14,220.93 154.73,323.68 -28.5,125.18 -265.63,91.32 -385.71,78.76l0 0.07z"/>
   <path class="fil1" d="M12926.21 3997.58c-106.8,-68.05 -213.85,-264.77 -230.64,-402.11 124.18,-11.04 348.41,-51.25 384.19,71.88 28.9,99.25 -122.93,310.79 -153.54,330.3l-0.01 -0.07z"/>
   <path class="fil1" d="M13580.06 2866.44c-6.28,38.82 -64.67,153.02 -85.24,184.96 -102.96,159.63 -193.55,155.79 -294.07,-4.17 -22.21,-35.32 -74.72,-136.36 -84.05,-180.46 84.9,-18.45 128.35,-41.39 231.83,-41.2 100.84,0.2 148.52,20.7 231.5,40.87l0.02 0z"/>
   <path class="fil2" d="M3176.9 3464.41c-17.85,-37.89 -41.86,-68.11 -83.78,-80.07 -1.59,3.77 -3.57,46.62 -43.51,45.49 -37.1,-1.05 -29.56,-31.94 -45.63,-46.42 -71.74,50.19 -26.65,1 -79.68,78.95 12.43,15.35 44.3,13.56 45.89,46.29 1.85,37.23 -25.26,35.84 -45.63,43.51 9.59,38.42 48.08,80.67 88.47,84.57 -2.52,-24.87 9.33,-44.9 36.51,-45.49 39.87,-0.93 33.92,27.37 43.58,45.82 46.75,-16.86 66.52,-40.2 84.45,-84.84 -20.43,-8.4 -44.17,-8.66 -45.82,-38.55 -0.73,-13.02 4.69,-25.59 11.64,-31.87 10.52,-9.59 20.37,-7.6 33.53,-17.26l-0.01 -0.13zm-102.63 -130.73c91.45,11.9 167.96,95.09 152.95,202.15 -31.41,223.64 -379.9,189.39 -351.99,-48.2 10.78,-91.71 95.28,-167.5 199.04,-153.94l0 -0.01z"/>
   <path class="fil2" d="M13392.92 3362.11c-8,9.39 -7.14,22.61 -15.01,33.06 -6.35,8.47 -44.96,38.22 -69.1,-22.61l-5.49 -10.91c-39.94,25.33 -60.57,24.33 -81.66,89.6 30.28,-0.66 24.4,0.93 43.44,17.39 10.78,51.44 -9.78,49.53 -42.78,61.56 17.85,47.74 36.7,66.33 83.71,84.71 10.45,-19.97 7.07,-46.62 42.52,-46.15 31.87,0.46 30.42,25.92 42.06,46.22 48.6,-20.23 63.55,-38.61 83.71,-84.71 -11.71,-4.69 -26.25,-7.01 -40.4,-14.28 -8.33,-35.51 -9.19,-69.63 38.61,-65.6 -1.19,-18.25 -19.97,-47.28 -27.25,-55.41 -11.44,-12.76 -31.8,-23.28 -52.37,-32.8l0 -0.07zm-22.42 -48.67c236.66,33.92 182.84,382.61 -49.46,349.54 -44.17,-6.28 -88.02,-32.2 -111.89,-64.74 -97.73,-133.17 11.18,-306.3 161.42,-284.74l-0.07 -0.07z"/>
  </g>
 </g>
</svg>
